<svg xmlns="http://www.w3.org/2000/svg" viewBox="0 0 180 252" role="img" aria-label="小王">
  <defs>
    <linearGradient id="paper" x1="22" y1="8" x2="158" y2="244" gradientUnits="userSpaceOnUse">
      <stop offset="0" stop-color="#fffdf7"/>
      <stop offset=".52" stop-color="#f7ead2"/>
      <stop offset="1" stop-color="#e7d3ad"/>
    </linearGradient>
    <linearGradient id="ink" x1="76" y1="42" x2="116" y2="208" gradientUnits="userSpaceOnUse">
      <stop offset="0" stop-color="#3b3a37"/>
      <stop offset="1" stop-color="#0f0e0d"/>
    </linearGradient>
    <filter id="shadow" x="-20%" y="-20%" width="140%" height="140%">
      <feDropShadow dx="0" dy="5" stdDeviation="5" flood-color="#000" flood-opacity=".22"/>
    </filter>
  </defs>
  <rect x="7" y="7" width="166" height="238" rx="16" fill="url(#paper)" stroke="#d8c3a0" stroke-width="4"/>
  <rect x="18" y="18" width="144" height="216" rx="11" fill="none" stroke="#7e5b35" stroke-opacity=".18" stroke-width="2"/>
  <text x="27" y="40" fill="#171412" font-family="Georgia, serif" font-size="22" font-weight="800">小王</text>
  <text x="27" y="62" fill="#171412" font-family="Georgia, serif" font-size="22">☆</text>
  <g filter="url(#shadow)">
    <path d="M90 44c20 17 34 38 42 63 7 22 6 45-2 68-5 14-13 27-24 39H74c-12-12-20-25-25-39-8-23-9-46-2-68 8-25 23-46 43-63Z" fill="url(#ink)"/>
    <path d="M60 88c11-26 47-26 60 0-8-7-16-10-25-10-11 0-22 4-35 10Z" fill="#f4d284"/>
    <circle cx="72" cy="116" r="8" fill="#f4d284"/>
    <circle cx="108" cy="116" r="8" fill="#f4d284"/>
    <path d="M70 151c12 9 28 9 40 0" fill="none" stroke="#f4d284" stroke-width="8" stroke-linecap="round"/>
    <path d="M62 205h56l-13 19H75l-13-19Z" fill="#b48a42"/>
  </g>
  <text x="90" y="226" text-anchor="middle" fill="#171412" font-family="Georgia, serif" font-size="18" font-weight="900" letter-spacing="3">JOKER</text>
  <g transform="rotate(180 90 126)">
    <text x="27" y="40" fill="#171412" font-family="Georgia, serif" font-size="22" font-weight="800">小王</text>
    <text x="27" y="62" fill="#171412" font-family="Georgia, serif" font-size="22">☆</text>
  </g>
</svg>
