<svg xmlns="http://www.w3.org/2000/svg" viewBox="0 0 180 252" role="img" aria-label="大王">
  <defs>
    <linearGradient id="paper" x1="22" y1="8" x2="158" y2="244" gradientUnits="userSpaceOnUse">
      <stop offset="0" stop-color="#fffdf7"/>
      <stop offset=".52" stop-color="#f8ead3"/>
      <stop offset="1" stop-color="#e8cfaa"/>
    </linearGradient>
    <linearGradient id="robe" x1="66" y1="44" x2="124" y2="214" gradientUnits="userSpaceOnUse">
      <stop offset="0" stop-color="#e44949"/>
      <stop offset=".54" stop-color="#b91f2b"/>
      <stop offset="1" stop-color="#681016"/>
    </linearGradient>
    <filter id="shadow" x="-20%" y="-20%" width="140%" height="140%">
      <feDropShadow dx="0" dy="5" stdDeviation="5" flood-color="#000" flood-opacity=".24"/>
    </filter>
  </defs>
  <rect x="7" y="7" width="166" height="238" rx="16" fill="url(#paper)" stroke="#d8c3a0" stroke-width="4"/>
  <rect x="18" y="18" width="144" height="216" rx="11" fill="none" stroke="#7e5b35" stroke-opacity=".18" stroke-width="2"/>
  <path d="M32 33 39 47l15 2-11 10 3 15-14-8-14 8 3-15-11-10 15-2 7-14Z" fill="#bb1d2a" opacity=".8"/>
  <g filter="url(#shadow)">
    <path d="M90 37 107 70l36 6-26 26 7 37-34-18-34 18 7-37-26-26 36-6L90 37Z" fill="#efc75e"/>
    <path d="M90 54c21 19 36 42 44 68 7 24 4 47-8 70-5 9-12 18-20 26H74c-9-8-15-17-20-26-12-23-15-46-8-70 8-26 23-49 44-68Z" fill="url(#robe)"/>
    <path d="M61 100c12-28 47-28 58 0-16-9-35-9-58 0Z" fill="#ffe1a1"/>
    <circle cx="73" cy="126" r="8" fill="#ffe1a1"/>
    <circle cx="107" cy="126" r="8" fill="#ffe1a1"/>
    <path d="M70 162c12 10 28 10 40 0" fill="none" stroke="#ffe1a1" stroke-width="8" stroke-linecap="round"/>
    <path d="M60 207h60l-13 18H73l-13-18Z" fill="#efc75e"/>
  </g>
  <g transform="rotate(180 90 126)">
    <path d="M32 33 39 47l15 2-11 10 3 15-14-8-14 8 3-15-11-10 15-2 7-14Z" fill="#bb1d2a" opacity=".8"/>
  </g>
</svg>
